<?xml version="1.0" encoding="UTF-8"?><!DOCTYPE svg PUBLIC "-//W3C//DTD SVG 1.1//EN" "http://www.w3.org/Graphics/SVG/1.1/DTD/svg11.dtd"><svg xmlns="http://www.w3.org/2000/svg" xmlns:xlink="http://www.w3.org/1999/xlink"><symbol id="icon-add" viewBox="0 0 18 16"><path d="M0 2.316A2.316 2.316 0 012.316 0h12.21a2.316 2.316 0 012.316 2.316v5.103a5.487 5.487 0 00-1.263-.908V2.316c0-.581-.472-1.053-1.053-1.053H2.316c-.581 0-1.053.472-1.053 1.053v8.842c0 .58.472 1.053 1.053 1.053h5.327c.068.44.189.864.355 1.263H2.316A2.315 2.315 0 010 11.158V2.316z" fill="currentColor"/><path d="M17.684 11.368a4.632 4.632 0 10-9.264 0 4.632 4.632 0 009.264 0zm-4.21.421v2.108a.421.421 0 11-.842 0V11.79h-2.11a.421.421 0 010-.843h2.11V8.842a.42.42 0 11.842 0v2.105h2.107a.421.421 0 110 .843h-2.106z" fill="currentColor"/></symbol><symbol id="icon-card" viewBox="0 0 13 14"><path d="M5.84 8.063H4.085a.133.133 0 00-.092.036.123.123 0 00-.038.088v.75c0 .034.014.065.038.089a.133.133 0 00.092.037H5.84v1.687c0 .033.014.065.038.088a.133.133 0 00.092.037h.78a.133.133 0 00.092-.037.123.123 0 00.038-.088V9.062h1.755a.133.133 0 00.092-.036.123.123 0 00.038-.088v-.75a.123.123 0 00-.038-.089.133.133 0 00-.092-.037H6.88V6.375a.123.123 0 00-.038-.088.133.133 0 00-.092-.037h-.78a.133.133 0 00-.092.037.123.123 0 00-.038.088v1.688zm6.087-4.552a.49.49 0 01.153.353V13.5a.51.51 0 01-.52.5H1.16a.51.51 0 01-.52-.5V.5c0-.277.232-.5.52-.5h6.901c.139 0 .272.053.37.147l3.496 3.364zm-1.046.583l-3.058-2.94v2.94h3.058z" fill="#000"/></symbol><symbol id="icon-check" viewBox="0 0 18 16"><path d="M1 9.125L6.6 14 17 1" stroke="#000" stroke-width="2"/></symbol><symbol id="icon-checkbox-check" viewBox="0 0 20 20"><path d="M8.028 13.643a.795.795 0 001.292 0l5.265-7.3a.2.2 0 00-.163-.318H13.25a.796.796 0 00-.648.332l-3.927 5.45-1.78-2.47a.8.8 0 00-.647-.332H5.075a.2.2 0 00-.162.317l3.115 4.32z" fill="#000"/><path d="M19.2 0H.8a.8.8 0 00-.8.8v18.4a.8.8 0 00.8.8h18.4a.8.8 0 00.8-.8V.8a.8.8 0 00-.8-.8zm-1 18.2H1.8V1.8h16.4v16.4z" fill="#000"/></symbol><symbol id="icon-checkbox" viewBox="0 0 20 20"><path d="M19.2 0H.8a.8.8 0 00-.8.8v18.4a.8.8 0 00.8.8h18.4a.8.8 0 00.8-.8V.8a.8.8 0 00-.8-.8zm-1 18.2H1.8V1.8h16.4v16.4z" fill="#000"/></symbol><symbol id="icon-complete" viewBox="0 0 128 128"><circle cx="64" cy="64" fill="#9bd2ee" r="64" data-name="Circle Grid"/><path d="M42.813 58.055h1.973a2.27 2.27 0 002.125-1.439c.749-1.942 3.246-5.827 11.508-11.518a29.666 29.666 0 0012.539-19.833 5.115 5.115 0 015.051-4.365h.05a5.171 5.171 0 015.168 4.948c.246 5.674-.336 14.928-5.818 20.664h23.819A5.772 5.772 0 01105 52.283a5.772 5.772 0 01-5.772 5.772l-1.668.1a.239.239 0 00-.224.238.239.239 0 00.239.239h.24a5.711 5.711 0 015.528 7.265 6.172 6.172 0 01-4.756 4.031s3.976 1.2 3.744 6.413c-.159 3.585-5.481 4.217-5.481 4.217s7.761 9.411-6.306 13.291-28.232 1.5-28.232 1.5l-18.917-1.98z" fill="#fed19a"/><path d="M38.3 56.856h6.152v37.456H38.3z" fill="#fff"/><rect fill="#575b6d" height="46.411" rx="2" width="16.27" x="23" y="52.69"/><circle cx="31.135" cy="61.302" fill="#eeefee" r="3.297"/></symbol><symbol id="icon-confirm" viewBox="0 0 14 14"><path d="M7 0a7 7 0 10.001 14.001A7 7 0 007 0zm3.023 4.714l-3.29 4.563a.497.497 0 01-.808 0l-1.948-2.7a.125.125 0 01.101-.199h.733a.5.5 0 01.405.208L6.328 8.13l2.456-3.407a.5.5 0 01.405-.207h.733c.101 0 .16.115.101.198z" fill="#000"/></symbol><symbol id="icon-delete" viewBox="0 0 20 21"><path d="M10 .75a3.25 3.25 0 013.245 3.066L13.25 4h5.25a.75.75 0 01.102 1.493L18.5 5.5h-.796l-1.28 13.02a2.75 2.75 0 01-2.561 2.474l-.176.006H6.313a2.75 2.75 0 01-2.714-2.307l-.023-.174L2.295 5.5H1.5a.75.75 0 01-.743-.648L.75 4.75a.75.75 0 01.648-.743L1.5 4h5.25A3.25 3.25 0 0110 .75zm6.197 4.75H3.802l1.267 12.872a1.25 1.25 0 001.117 1.122l.127.006h7.374c.6 0 1.109-.425 1.225-1.002l.02-.126L16.196 5.5h.001zM11.75 8.25a.75.75 0 01.743.648L12.5 9v7a.75.75 0 01-1.493.102L11 16V9a.75.75 0 01.75-.75zm-3.5 0a.75.75 0 01.743.648L9 9v7a.75.75 0 01-1.493.102L7.5 16V9a.75.75 0 01.75-.75zm1.75-6a1.75 1.75 0 00-1.744 1.606L8.25 4h3.5A1.75 1.75 0 0010 2.25z" fill="#000"/></symbol><symbol id="icon-edit" viewBox="0 0 13 13"><path d="M11.657 1.344a2 2 0 010 2.828L4.27 11.559a2.5 2.5 0 01-1.161.657l-2.291.573a.5.5 0 01-.606-.607l.572-2.29a2.5 2.5 0 01.658-1.162l7.386-7.386a2 2 0 012.829 0zm-3.536 2.12L2.15 9.438a1.5 1.5 0 00-.394.697l-.371 1.483 1.482-.371a1.5 1.5 0 00.697-.395L9.536 4.88 8.122 3.466l-.001-.002zm1.415-1.413l-.708.707 1.414 1.414.708-.707a1 1 0 00-1.414-1.414z" fill="#000"/></symbol><symbol id="icon-login" viewBox="0 0 21 21"><path opacity=".2" d="M10.5 1.125A9.375 9.375 0 004.23 17.47a7.031 7.031 0 016.27-3.845 3.906 3.906 0 110-7.813 3.906 3.906 0 010 7.813 7.031 7.031 0 016.27 3.845A9.375 9.375 0 0010.5 1.125z" fill="#000"/><path d="M20.656 10.5a10.156 10.156 0 10-17.01 7.488.781.781 0 00.13.117 10.135 10.135 0 0013.448 0 .774.774 0 00.129-.116 10.132 10.132 0 003.303-7.489zm-18.75 0a8.594 8.594 0 1115.016 5.704 7.77 7.77 0 00-3.521-2.807 4.687 4.687 0 10-5.802 0 7.77 7.77 0 00-3.52 2.807A8.558 8.558 0 011.905 10.5zm5.469-.781a3.125 3.125 0 116.25 0 3.125 3.125 0 01-6.25 0zm-2.14 7.568a6.252 6.252 0 0110.53 0 8.575 8.575 0 01-10.53 0z" fill="#000"/></symbol><symbol id="icon-project" viewBox="0 0 15 12"><path d="M14.4 2.093H7.669L5.469.04A.155.155 0 005.366 0H.6C.268 0 0 .262 0 .585v10.83c0 .323.268.585.6.585h13.8c.332 0 .6-.262.6-.585V2.678a.592.592 0 00-.6-.585zM9.75 7.189c0 .07-.064.128-.14.128H8.024V8.87c0 .071-.06.13-.131.13h-.788a.132.132 0 01-.131-.13V7.317H5.391c-.077 0-.141-.058-.141-.128v-.768c0-.07.064-.128.14-.128h1.585V4.74c0-.072.06-.13.131-.13h.788c.071 0 .131.058.131.13v1.553h1.584c.077 0 .141.058.141.128v.768z" fill="#000"/></symbol><symbol id="icon-question" viewBox="0 0 34 34"><path opacity=".2" d="M17 32c8.285 0 15-6.716 15-15 0-8.284-6.715-15-15-15C8.716 2 2 8.716 2 17c0 8.284 6.716 15 15 15z" fill="#000"/><path d="M17 .75A16.25 16.25 0 1033.25 17 16.269 16.269 0 0017 .75zm0 30A13.75 13.75 0 1130.75 17 13.766 13.766 0 0117 30.75zm1.875-5.625a1.875 1.875 0 11-3.75 0 1.875 1.875 0 013.75 0zm3.75-11.25a5.635 5.635 0 01-4.375 5.486v.14a1.25 1.25 0 01-2.5 0v-1.25A1.25 1.25 0 0117 17a3.125 3.125 0 10-3.125-3.125 1.25 1.25 0 01-2.5 0 5.625 5.625 0 1111.25 0z" fill="#000"/></symbol><symbol id="icon-save" viewBox="0 0 12 12"><path d="M2 1a1 1 0 00-1 1v8a1 1 0 001 1V7.5A1.5 1.5 0 013.5 6h5A1.5 1.5 0 0110 7.5V11a1 1 0 001-1V3.62a1 1 0 00-.293-.707L9.086 1.292A1 1 0 008.379 1H8v1.5A1.5 1.5 0 016.5 4h-2A1.5 1.5 0 013 2.5V1H2zm2 0v1.5a.5.5 0 00.5.5h2a.5.5 0 00.5-.5V1H4zm5 10V7.5a.5.5 0 00-.5-.5h-5a.5.5 0 00-.5.5V11h6zM0 2a2 2 0 012-2h6.379a2 2 0 011.414.586l1.621 1.621A2 2 0 0112 3.621V10a2 2 0 01-2 2H2a2 2 0 01-2-2V2z" fill="#000"/></symbol><symbol id="icon-select" viewBox="0 0 16 8"><path d="M1 1c7 8 7 8 14 0" stroke="#000"/></symbol></svg>